<?xml version="1.0"?>
<svg xmlns="http://www.w3.org/2000/svg" width="12" height="36" viewBox="0 0 12 36"><svg viewBox="0 0 12 12" width="12" height="12" id="add" y="0"><path d="M6.73 4.72V0h-2v4.72H.05v2h4.68v4.68h2V6.72h4.68v-2z" fill="#7193b6"/></svg><svg viewBox="0 0 12 7" width="12" height="12" id="arrow" y="12"><path d="M10.79 0L12 1.06 6 7 0 1.06 1.2 0 6 4.75z" fill="#b0b4b8"/></svg><svg viewBox="0 0 10 10" width="12" height="12" id="close" y="24"><path d="M4.73 3.31L1.41 0 0 1.42l3.31 3.3L0 8l1.41 1.44 3.32-3.31L8 9.44 9.45 8 6.14 4.72l3.31-3.3L8 0z" fill="#fff"/></svg></svg>